<svg xmlns="http://www.w3.org/2000/svg" xmlns:xlink="http://www.w3.org/1999/xlink" width="500" zoomAndPan="magnify" viewBox="0 0 375 374.999991" height="500" preserveAspectRatio="xMidYMid meet" version="1.2"><defs><clipPath id="d1fc9ea035"><path d="M 286 154 L 307 154 L 307 174 L 286 174 Z M 286 154 "/></clipPath><clipPath id="5ad3c18e71"><path d="M 341.113281 167.425781 L 318.398438 236.539062 L 254.273438 215.464844 L 276.988281 146.351562 Z M 341.113281 167.425781 "/></clipPath><clipPath id="773a6d1de6"><path d="M 341.113281 167.425781 L 318.398438 236.539062 L 254.273438 215.464844 L 276.988281 146.351562 Z M 341.113281 167.425781 "/></clipPath><clipPath id="a7b634167a"><path d="M 291 175 L 316 175 L 316 199 L 291 199 Z M 291 175 "/></clipPath><clipPath id="9cd5f6a454"><path d="M 341.113281 167.425781 L 318.398438 236.539062 L 254.273438 215.464844 L 276.988281 146.351562 Z M 341.113281 167.425781 "/></clipPath><clipPath id="71ba56e858"><path d="M 341.113281 167.425781 L 318.398438 236.539062 L 254.273438 215.464844 L 276.988281 146.351562 Z M 341.113281 167.425781 "/></clipPath><clipPath id="763a982671"><path d="M 265 166 L 290 166 L 290 190 L 265 190 Z M 265 166 "/></clipPath><clipPath id="e6c3d60d13"><path d="M 341.113281 167.425781 L 318.398438 236.539062 L 254.273438 215.464844 L 276.988281 146.351562 Z M 341.113281 167.425781 "/></clipPath><clipPath id="61eb0f0872"><path d="M 341.113281 167.425781 L 318.398438 236.539062 L 254.273438 215.464844 L 276.988281 146.351562 Z M 341.113281 167.425781 "/></clipPath><clipPath id="614e95d41c"><path d="M 294 200 L 327 200 L 327 232 L 294 232 Z M 294 200 "/></clipPath><clipPath id="db1ab72b9b"><path d="M 341.113281 167.425781 L 318.398438 236.539062 L 254.273438 215.464844 L 276.988281 146.351562 Z M 341.113281 167.425781 "/></clipPath><clipPath id="7d89e50356"><path d="M 341.113281 167.425781 L 318.398438 236.539062 L 254.273438 215.464844 L 276.988281 146.351562 Z M 341.113281 167.425781 "/></clipPath><clipPath id="e3f9950f16"><path d="M 145 43.8125 L 219 43.8125 L 219 107 L 145 107 Z M 145 43.8125 "/></clipPath><clipPath id="efe98a25a2"><path d="M 72.351562 170 L 145.605469 170 L 145.605469 233.1875 L 72.351562 233.1875 Z M 72.351562 170 "/></clipPath><clipPath id="391297dfc5"><path d="M 108.300781 106.894531 L 218.179688 106.894531 L 218.179688 233.1875 L 108.300781 233.1875 Z M 108.300781 106.894531 "/></clipPath><clipPath id="def94eb148"><path d="M 181.554688 106.894531 L 291.027344 106.894531 L 291.027344 233.1875 L 181.554688 233.1875 Z M 181.554688 106.894531 "/></clipPath><clipPath id="74395b36e9"><path d="M 82.675781 6.332031 L 327 6.332031 L 327 203.582031 L 82.675781 203.582031 Z M 82.675781 6.332031 "/></clipPath></defs><g id="f988aa0b53"><g clip-rule="nonzero" clip-path="url(#d1fc9ea035)"><g clip-rule="nonzero" clip-path="url(#5ad3c18e71)"><g clip-rule="nonzero" clip-path="url(#773a6d1de6)"><path style=" stroke:none;fill-rule:nonzero;fill:#88d34d;fill-opacity:1;" d="M 303.378906 171.121094 L 293.597656 173.179688 L 286.921875 165.710938 L 290.042969 156.210938 L 299.847656 154.160156 L 306.5 161.621094 Z M 303.378906 171.121094 "/></g></g></g><g clip-rule="nonzero" clip-path="url(#a7b634167a)"><g clip-rule="nonzero" clip-path="url(#9cd5f6a454)"><g clip-rule="nonzero" clip-path="url(#71ba56e858)"><path style=" stroke:none;fill-rule:nonzero;fill:#47a1ff;fill-opacity:1;" d="M 311.519531 196.238281 L 299.601562 198.738281 L 291.492188 189.65625 L 295.285156 178.113281 L 307.203125 175.613281 L 315.316406 184.695312 Z M 311.519531 196.238281 "/></g></g></g><g clip-rule="nonzero" clip-path="url(#763a982671)"><g clip-rule="nonzero" clip-path="url(#e6c3d60d13)"><g clip-rule="nonzero" clip-path="url(#61eb0f0872)"><path style=" stroke:none;fill-rule:nonzero;fill:#ffd80a;fill-opacity:1;" d="M 285.652344 187.511719 L 273.738281 189.992188 L 265.621094 180.925781 L 269.421875 169.363281 L 281.339844 166.863281 L 289.453125 175.945312 Z M 285.652344 187.511719 "/></g></g></g><g clip-rule="nonzero" clip-path="url(#614e95d41c)"><g clip-rule="nonzero" clip-path="url(#db1ab72b9b)"><g clip-rule="nonzero" clip-path="url(#7d89e50356)"><path style=" stroke:none;fill-rule:nonzero;fill:#ff3793;fill-opacity:1;" d="M 321.199219 228.03125 L 305.515625 231.308594 L 294.8125 219.359375 L 299.824219 204.113281 L 315.53125 200.839844 L 326.210938 212.785156 Z M 321.199219 228.03125 "/></g></g></g><g clip-rule="nonzero" clip-path="url(#e3f9950f16)"><path style=" stroke:none;fill-rule:nonzero;fill:#ffd80a;fill-opacity:1;" d="M 199.9375 43.8125 L 163.445312 43.8125 L 145.265625 75.351562 L 163.445312 106.960938 L 199.9375 106.960938 L 218.113281 75.351562 L 199.9375 43.8125 "/></g><g clip-rule="nonzero" clip-path="url(#efe98a25a2)"><path style=" stroke:none;fill-rule:nonzero;fill:#ff3793;fill-opacity:1;" d="M 127.019531 170.042969 L 90.597656 170.042969 L 72.351562 201.648438 L 90.597656 233.1875 L 127.019531 233.1875 L 145.265625 201.648438 L 127.019531 170.042969 "/></g><g clip-rule="nonzero" clip-path="url(#391297dfc5)"><path style=" stroke:none;fill-rule:nonzero;fill:#88d34d;fill-opacity:1;" d="M 206.644531 181.710938 L 206.648438 181.707031 L 205.421875 179.578125 L 199.9375 170.042969 L 199.910156 170.042969 L 175.378906 127.582031 L 175.375 127.585938 L 163.445312 106.960938 L 127.019531 106.960938 L 108.773438 138.5 L 121.054688 159.730469 L 121.050781 159.730469 L 151.109375 211.792969 L 163.445312 233.1875 L 199.9375 233.1875 L 218.113281 201.648438 L 206.644531 181.710938 "/></g><g clip-rule="nonzero" clip-path="url(#def94eb148)"><path style=" stroke:none;fill-rule:nonzero;fill:#47a1ff;fill-opacity:1;" d="M 278.632812 180.175781 L 278.683594 180.148438 L 247.480469 126.019531 L 247.410156 126.066406 L 236.359375 106.960938 L 199.9375 106.960938 L 181.6875 138.5 L 199.9375 170.042969 L 199.945312 170.042969 L 218.167969 201.554688 L 218.113281 201.648438 L 236.359375 233.1875 L 272.78125 233.1875 L 291.027344 201.648438 L 278.632812 180.175781 "/></g><g clip-rule="nonzero" clip-path="url(#74395b36e9)"><path style=" stroke:none;fill-rule:evenodd;fill:#ffffff;fill-opacity:1;" d="M 246.726562 203.316406 C 275.648438 203.316406 302.8125 199.910156 326.410156 193.917969 C 310.167969 196.382812 292.800781 197.710938 274.742188 197.710938 C 184.238281 197.710938 110.867188 164.320312 110.867188 123.128906 C 110.867188 95.109375 144.832031 70.703125 195.058594 57.945312 C 129.867188 67.796875 82.851562 95.765625 82.851562 128.75 C 82.851562 169.929688 156.222656 203.316406 246.726562 203.316406 Z M 243.683594 45.574219 L 243.683594 44.96875 C 207.554688 44.96875 204.933594 39.109375 204.933594 6.226562 L 204.328125 6.226562 C 204.328125 39.109375 201.691406 44.96875 165.5625 44.96875 L 165.5625 45.574219 C 201.691406 45.574219 204.328125 51.414062 204.328125 84.300781 L 204.933594 84.300781 C 204.933594 51.414062 207.554688 45.574219 243.683594 45.574219 "/></g><g style="fill:#ffffff;fill-opacity:1;"><g transform="translate(19.971004, 315.689923)"><path style="stroke:none" d="M 33.953125 -31.9375 C 33.953125 -28.800781 32.648438 -27.234375 30.046875 -27.234375 L 11.625 -27.234375 L 11.625 -17.546875 L 36.375 -17.546875 C 36.375 -14.453125 35.070312 -12.90625 32.46875 -12.90625 L 5.640625 -12.90625 C 2.910156 -12.90625 1.546875 -14.25 1.546875 -16.9375 L 1.546875 -41.140625 C 1.546875 -43.828125 2.890625 -45.171875 5.578125 -45.171875 L 36.375 -45.171875 C 36.375 -42.035156 35.070312 -40.46875 32.46875 -40.46875 L 11.625 -40.46875 L 11.625 -31.9375 Z M 33.953125 -31.9375 "/></g><g transform="translate(57.888305, 315.689923)"><path style="stroke:none" d="M 14.3125 -42.484375 L 28.96875 -25.609375 L 28.96875 -45.171875 L 39.0625 -45.171875 L 39.0625 -17.140625 C 39.0625 -14.316406 37.5625 -12.90625 34.5625 -12.90625 L 33.078125 -12.90625 C 30.335938 -12.90625 27.757812 -14.09375 25.34375 -16.46875 L 11.625 -32.46875 L 11.625 -12.90625 L 1.546875 -12.90625 L 1.546875 -40.875 C 1.546875 -43.738281 2.753906 -45.171875 5.171875 -45.171875 L 9.546875 -45.171875 C 10.890625 -45.171875 12.476562 -44.273438 14.3125 -42.484375 Z M 14.3125 -42.484375 "/></g><g transform="translate(98.629236, 315.689923)"><path style="stroke:none" d="M 34.078125 -43.5 C 37.671875 -41.394531 39.441406 -38.191406 39.390625 -33.890625 L 29.3125 -33.890625 C 29.21875 -38.003906 26.347656 -40.0625 20.703125 -40.0625 C 15.285156 -40.0625 12.550781 -38.492188 12.5 -35.359375 C 12.550781 -32.941406 15.285156 -31.734375 20.703125 -31.734375 C 28.273438 -31.816406 33.363281 -31.164062 35.96875 -29.78125 C 38.789062 -28.394531 40.203125 -26.132812 40.203125 -23 C 40.203125 -18.6875 38.429688 -15.660156 34.890625 -13.921875 C 32.378906 -12.660156 27.582031 -12.03125 20.5 -12.03125 C 13.425781 -12.03125 8.898438 -12.660156 6.921875 -13.921875 C 3.472656 -15.890625 1.75 -19.335938 1.75 -24.265625 L 11.703125 -24.265625 C 11.703125 -19.648438 14.4375 -17.34375 19.90625 -17.34375 C 26.582031 -17.34375 29.988281 -19.203125 30.125 -22.921875 C 29.988281 -25.160156 26.582031 -26.304688 19.90625 -26.359375 C 14.207031 -26.304688 10.0625 -26.863281 7.46875 -28.03125 C 4.195312 -29.289062 2.5625 -31.757812 2.5625 -35.4375 C 2.5625 -39.0625 4.285156 -41.75 7.734375 -43.5 C 10.242188 -44.75 14.632812 -45.375 20.90625 -45.375 C 27.1875 -45.375 31.578125 -44.75 34.078125 -43.5 Z M 34.078125 -43.5 "/></g><g transform="translate(140.445835, 315.689923)"><path style="stroke:none" d="M 33.953125 -31.9375 C 33.953125 -28.800781 32.648438 -27.234375 30.046875 -27.234375 L 11.625 -27.234375 L 11.625 -17.546875 L 36.375 -17.546875 C 36.375 -14.453125 35.070312 -12.90625 32.46875 -12.90625 L 5.640625 -12.90625 C 2.910156 -12.90625 1.546875 -14.25 1.546875 -16.9375 L 1.546875 -41.140625 C 1.546875 -43.828125 2.890625 -45.171875 5.578125 -45.171875 L 36.375 -45.171875 C 36.375 -42.035156 35.070312 -40.46875 32.46875 -40.46875 L 11.625 -40.46875 L 11.625 -31.9375 Z M 33.953125 -31.9375 "/></g><g transform="translate(178.363137, 315.689923)"><path style="stroke:none" d="M 11.625 -45.171875 L 11.625 -12.90625 L 1.546875 -12.90625 L 1.546875 -45.171875 Z M 11.625 -45.171875 "/></g><g transform="translate(191.741759, 315.689923)"><path style="stroke:none" d="M 33.8125 -43.5 C 38.300781 -41.394531 40.609375 -37.921875 40.734375 -33.078125 L 30.65625 -33.078125 C 30.5625 -37.734375 27.515625 -40.0625 21.515625 -40.0625 C 14.972656 -40.0625 11.703125 -36.234375 11.703125 -28.578125 C 11.703125 -20.640625 15.0625 -16.671875 21.78125 -16.671875 C 27.03125 -16.671875 30.007812 -19.648438 30.71875 -25.609375 L 20.375 -25.609375 L 20.375 -30.328125 L 36.296875 -30.328125 C 39.441406 -30.328125 41.035156 -29.023438 41.078125 -26.421875 C 41.035156 -20.773438 39.722656 -16.960938 37.140625 -14.984375 C 34.566406 -13.015625 29.300781 -12.03125 21.34375 -12.03125 C 13.382812 -12.03125 8.441406 -12.789062 6.515625 -14.3125 C 3.335938 -16.738281 1.75 -21.425781 1.75 -28.375 C 1.75 -36.300781 4.007812 -41.34375 8.53125 -43.5 C 11.582031 -44.75 15.796875 -45.375 21.171875 -45.375 C 26.554688 -45.375 30.769531 -44.75 33.8125 -43.5 Z M 33.8125 -43.5 "/></g><g transform="translate(234.499568, 315.689923)"><path style="stroke:none" d="M 14.3125 -42.484375 L 28.96875 -25.609375 L 28.96875 -45.171875 L 39.0625 -45.171875 L 39.0625 -17.140625 C 39.0625 -14.316406 37.5625 -12.90625 34.5625 -12.90625 L 33.078125 -12.90625 C 30.335938 -12.90625 27.757812 -14.09375 25.34375 -16.46875 L 11.625 -32.46875 L 11.625 -12.90625 L 1.546875 -12.90625 L 1.546875 -40.875 C 1.546875 -43.738281 2.753906 -45.171875 5.171875 -45.171875 L 9.546875 -45.171875 C 10.890625 -45.171875 12.476562 -44.273438 14.3125 -42.484375 Z M 14.3125 -42.484375 "/></g><g transform="translate(275.240499, 315.689923)"><path style="stroke:none" d="M 33.953125 -31.9375 C 33.953125 -28.800781 32.648438 -27.234375 30.046875 -27.234375 L 11.625 -27.234375 L 11.625 -17.546875 L 36.375 -17.546875 C 36.375 -14.453125 35.070312 -12.90625 32.46875 -12.90625 L 5.640625 -12.90625 C 2.910156 -12.90625 1.546875 -14.25 1.546875 -16.9375 L 1.546875 -41.140625 C 1.546875 -43.828125 2.890625 -45.171875 5.578125 -45.171875 L 36.375 -45.171875 C 36.375 -42.035156 35.070312 -40.46875 32.46875 -40.46875 L 11.625 -40.46875 L 11.625 -31.9375 Z M 33.953125 -31.9375 "/></g><g transform="translate(313.1578, 315.689923)"><path style="stroke:none" d="M 34.078125 -43.5 C 37.671875 -41.394531 39.441406 -38.191406 39.390625 -33.890625 L 29.3125 -33.890625 C 29.21875 -38.003906 26.347656 -40.0625 20.703125 -40.0625 C 15.285156 -40.0625 12.550781 -38.492188 12.5 -35.359375 C 12.550781 -32.941406 15.285156 -31.734375 20.703125 -31.734375 C 28.273438 -31.816406 33.363281 -31.164062 35.96875 -29.78125 C 38.789062 -28.394531 40.203125 -26.132812 40.203125 -23 C 40.203125 -18.6875 38.429688 -15.660156 34.890625 -13.921875 C 32.378906 -12.660156 27.582031 -12.03125 20.5 -12.03125 C 13.425781 -12.03125 8.898438 -12.660156 6.921875 -13.921875 C 3.472656 -15.890625 1.75 -19.335938 1.75 -24.265625 L 11.703125 -24.265625 C 11.703125 -19.648438 14.4375 -17.34375 19.90625 -17.34375 C 26.582031 -17.34375 29.988281 -19.203125 30.125 -22.921875 C 29.988281 -25.160156 26.582031 -26.304688 19.90625 -26.359375 C 14.207031 -26.304688 10.0625 -26.863281 7.46875 -28.03125 C 4.195312 -29.289062 2.5625 -31.757812 2.5625 -35.4375 C 2.5625 -39.0625 4.285156 -41.75 7.734375 -43.5 C 10.242188 -44.75 14.632812 -45.375 20.90625 -45.375 C 27.1875 -45.375 31.578125 -44.75 34.078125 -43.5 Z M 34.078125 -43.5 "/></g></g><g style="fill:#ffffff;fill-opacity:1;"><g transform="translate(27.777194, 353.460299)"><path style="stroke:none" d="M 20.640625 0 L 20.640625 -28.46875 L 19.125 -29.984375 L 11.1875 -29.984375 L 9.6875 -28.46875 L 9.6875 0 L 5.0625 0 L 5.0625 -30.5625 L 8.5625 -34.078125 L 20.484375 -34.078125 L 22.96875 -31.59375 L 25.453125 -34.078125 L 37.328125 -34.078125 L 40.890625 -30.5625 L 40.890625 0 L 36.265625 0 L 36.265625 -28.46875 L 34.75 -29.984375 L 26.8125 -29.984375 L 25.265625 -28.46875 L 25.265625 0 Z M 20.640625 0 "/></g></g><g style="fill:#ffffff;fill-opacity:1;"><g transform="translate(73.716194, 353.460299)"><path style="stroke:none" d="M 5.0625 0 L 5.0625 -34.078125 L 29.59375 -34.078125 L 29.59375 -29.984375 L 9.6875 -29.984375 L 9.6875 -19.078125 L 24.71875 -19.078125 L 24.71875 -14.984375 L 9.6875 -14.984375 L 9.6875 -4.09375 L 29.59375 -4.09375 L 29.59375 0 Z M 5.0625 0 "/></g></g><g style="fill:#ffffff;fill-opacity:1;"><g transform="translate(106.126543, 353.460299)"><path style="stroke:none" d="M 5.0625 0 L 5.0625 -34.078125 L 26.421875 -34.078125 L 32.359375 -28.125 L 32.359375 -5.984375 L 26.421875 0 Z M 9.6875 -4.09375 L 24.140625 -4.09375 L 27.75 -7.6875 L 27.75 -26.421875 L 24.140625 -29.984375 L 9.6875 -29.984375 Z M 9.6875 -4.09375 "/></g></g><g style="fill:#ffffff;fill-opacity:1;"><g transform="translate(142.576019, 353.460299)"><path style="stroke:none" d="M 5.0625 0 L 5.0625 -34.078125 L 9.6875 -34.078125 L 9.6875 0 Z M 5.0625 0 "/></g></g><g style="fill:#ffffff;fill-opacity:1;"><g transform="translate(157.321274, 353.460299)"><path style="stroke:none" d="M 5.0625 0 L 5.0625 -30.5625 L 8.5625 -34.078125 L 28.46875 -34.078125 L 32.03125 -30.5625 L 32.03125 0 L 27.40625 0 L 27.40625 -11.484375 L 9.6875 -11.484375 L 9.6875 0 Z M 9.6875 -15.578125 L 27.40625 -15.578125 L 27.40625 -28.46875 L 25.84375 -29.984375 L 11.1875 -29.984375 L 9.6875 -28.46875 Z M 9.6875 -15.578125 "/></g></g><g style="fill:#ffffff;fill-opacity:1;"><g transform="translate(194.354718, 353.460299)"><path style="stroke:none" d="M 5.0625 0 L 5.0625 -34.078125 L 28.46875 -34.078125 L 32.03125 -30.5625 L 32.03125 -16.015625 L 28.46875 -12.453125 L 9.6875 -12.453125 L 9.6875 0 Z M 9.6875 -16.546875 L 25.84375 -16.546875 L 27.40625 -18.0625 L 27.40625 -28.46875 L 25.84375 -29.984375 L 9.6875 -29.984375 Z M 9.6875 -16.546875 "/></g></g><g style="fill:#ffffff;fill-opacity:1;"><g transform="translate(229.928242, 353.460299)"><path style="stroke:none" d="M 5.0625 0 L 5.0625 -34.078125 L 28.46875 -34.078125 L 32.03125 -30.5625 L 32.03125 -17.90625 L 28.671875 -14.546875 L 32.03125 -11.140625 L 32.03125 0 L 27.40625 0 L 27.40625 -10.359375 L 25.265625 -12.453125 L 9.6875 -12.453125 L 9.6875 0 Z M 9.6875 -16.546875 L 25.265625 -16.546875 L 27.40625 -18.6875 L 27.40625 -28.46875 L 25.84375 -29.984375 L 9.6875 -29.984375 Z M 9.6875 -16.546875 "/></g></g><g style="fill:#ffffff;fill-opacity:1;"><g transform="translate(266.669701, 353.460299)"><path style="stroke:none" d="M 5.0625 0 L 5.0625 -34.078125 L 9.6875 -34.078125 L 9.6875 0 Z M 5.0625 0 "/></g></g><g style="fill:#ffffff;fill-opacity:1;"><g transform="translate(281.414956, 353.460299)"><path style="stroke:none" d="M 5.0625 0 L 5.0625 -30.5625 L 8.5625 -34.078125 L 28.46875 -34.078125 L 32.03125 -30.5625 L 32.03125 0 L 27.40625 0 L 27.40625 -28.46875 L 25.84375 -29.984375 L 11.1875 -29.984375 L 9.6875 -28.46875 L 9.6875 0 Z M 5.0625 0 "/></g></g><g style="fill:#ffffff;fill-opacity:1;"><g transform="translate(318.4484, 353.460299)"><path style="stroke:none" d="M 12.078125 0 L 12.078125 -29.984375 L 1.265625 -29.984375 L 1.265625 -34.078125 L 27.453125 -34.078125 L 27.453125 -29.984375 L 16.6875 -29.984375 L 16.6875 0 Z M 12.078125 0 "/></g></g></g></svg>