<svg xmlns="http://www.w3.org/2000/svg" xmlns:xlink="http://www.w3.org/1999/xlink" width="500" zoomAndPan="magnify" viewBox="0 0 375 374.999991" height="500" preserveAspectRatio="xMidYMid meet" version="1.2"><defs><clipPath id="90540b4eb4"><path d="M 286 154 L 307 154 L 307 174 L 286 174 Z M 286 154 "/></clipPath><clipPath id="b185afdaf7"><path d="M 341.109375 167.429688 L 318.542969 236.089844 L 253.695312 214.777344 L 276.261719 146.117188 Z M 341.109375 167.429688 "/></clipPath><clipPath id="e979f3a3fa"><path d="M 341.109375 167.429688 L 318.542969 236.089844 L 253.695312 214.777344 L 276.261719 146.117188 Z M 341.109375 167.429688 "/></clipPath><clipPath id="2254c93b21"><path d="M 291 175 L 316 175 L 316 199 L 291 199 Z M 291 175 "/></clipPath><clipPath id="935dbc4764"><path d="M 341.109375 167.429688 L 318.542969 236.089844 L 253.695312 214.777344 L 276.261719 146.117188 Z M 341.109375 167.429688 "/></clipPath><clipPath id="a2ebda12c8"><path d="M 341.109375 167.429688 L 318.542969 236.089844 L 253.695312 214.777344 L 276.261719 146.117188 Z M 341.109375 167.429688 "/></clipPath><clipPath id="fd55ad156f"><path d="M 265 166 L 290 166 L 290 191 L 265 191 Z M 265 166 "/></clipPath><clipPath id="32186516bd"><path d="M 341.109375 167.429688 L 318.542969 236.089844 L 253.695312 214.777344 L 276.261719 146.117188 Z M 341.109375 167.429688 "/></clipPath><clipPath id="606b336e55"><path d="M 341.109375 167.429688 L 318.542969 236.089844 L 253.695312 214.777344 L 276.261719 146.117188 Z M 341.109375 167.429688 "/></clipPath><clipPath id="dd43d00117"><path d="M 294 200 L 327 200 L 327 232 L 294 232 Z M 294 200 "/></clipPath><clipPath id="2ea883ab7f"><path d="M 341.109375 167.429688 L 318.542969 236.089844 L 253.695312 214.777344 L 276.261719 146.117188 Z M 341.109375 167.429688 "/></clipPath><clipPath id="4cdec3978c"><path d="M 341.109375 167.429688 L 318.542969 236.089844 L 253.695312 214.777344 L 276.261719 146.117188 Z M 341.109375 167.429688 "/></clipPath><clipPath id="9c9408272a"><path d="M 145 43.8125 L 218 43.8125 L 218 107 L 145 107 Z M 145 43.8125 "/></clipPath><clipPath id="42c9ded992"><path d="M 72.355469 169.535156 L 145.355469 169.535156 L 145.355469 232.53125 L 72.355469 232.53125 Z M 72.355469 169.535156 "/></clipPath><clipPath id="d447808275"><path d="M 108.179688 106.675781 L 217.679688 106.675781 L 217.679688 232.53125 L 108.179688 232.53125 Z M 108.179688 106.675781 "/></clipPath><clipPath id="883e5eea50"><path d="M 181.179688 106.675781 L 290.273438 106.675781 L 290.273438 232.53125 L 181.179688 232.53125 Z M 181.179688 106.675781 "/></clipPath><clipPath id="97618e4d5f"><path d="M 83 6.332031 L 327 6.332031 L 327 203 L 83 203 Z M 83 6.332031 "/></clipPath></defs><g id="ce8177d5bc"><g clip-rule="nonzero" clip-path="url(#90540b4eb4)"><g clip-rule="nonzero" clip-path="url(#b185afdaf7)"><g clip-rule="nonzero" clip-path="url(#e979f3a3fa)"><path style=" stroke:none;fill-rule:nonzero;fill:#88d34d;fill-opacity:1;" d="M 303.273438 171.128906 L 293.464844 173.195312 L 286.769531 165.707031 L 289.902344 156.183594 L 299.730469 154.125 L 306.402344 161.605469 Z M 303.273438 171.128906 "/></g></g></g><g clip-rule="nonzero" clip-path="url(#2254c93b21)"><g clip-rule="nonzero" clip-path="url(#935dbc4764)"><g clip-rule="nonzero" clip-path="url(#a2ebda12c8)"><path style=" stroke:none;fill-rule:nonzero;fill:#47a1ff;fill-opacity:1;" d="M 311.4375 196.316406 L 299.484375 198.824219 L 291.351562 189.714844 L 295.15625 178.140625 L 307.109375 175.632812 L 315.242188 184.742188 Z M 311.4375 196.316406 "/></g></g></g><g clip-rule="nonzero" clip-path="url(#fd55ad156f)"><g clip-rule="nonzero" clip-path="url(#32186516bd)"><g clip-rule="nonzero" clip-path="url(#606b336e55)"><path style=" stroke:none;fill-rule:nonzero;fill:#ffd80a;fill-opacity:1;" d="M 285.496094 187.5625 L 273.554688 190.050781 L 265.414062 180.964844 L 269.226562 169.367188 L 281.175781 166.859375 L 289.308594 175.96875 Z M 285.496094 187.5625 "/></g></g></g><g clip-rule="nonzero" clip-path="url(#dd43d00117)"><g clip-rule="nonzero" clip-path="url(#2ea883ab7f)"><g clip-rule="nonzero" clip-path="url(#4cdec3978c)"><path style=" stroke:none;fill-rule:nonzero;fill:#ff3793;fill-opacity:1;" d="M 321.140625 228.191406 L 305.414062 231.480469 L 294.683594 219.496094 L 299.707031 204.210938 L 315.457031 200.929688 L 326.164062 212.90625 Z M 321.140625 228.191406 "/></g></g></g><g clip-rule="nonzero" clip-path="url(#9c9408272a)"><path style=" stroke:none;fill-rule:nonzero;fill:#ffd80a;fill-opacity:1;" d="M 199.496094 43.8125 L 163.132812 43.8125 L 145.015625 75.242188 L 163.132812 106.742188 L 199.496094 106.742188 L 217.609375 75.242188 L 199.496094 43.8125 "/></g><g clip-rule="nonzero" clip-path="url(#42c9ded992)"><path style=" stroke:none;fill-rule:nonzero;fill:#ff3793;fill-opacity:1;" d="M 126.835938 169.605469 L 90.539062 169.605469 L 72.355469 201.101562 L 90.539062 232.53125 L 126.835938 232.53125 L 145.015625 201.101562 L 126.835938 169.605469 "/></g><g clip-rule="nonzero" clip-path="url(#d447808275)"><path style=" stroke:none;fill-rule:nonzero;fill:#88d34d;fill-opacity:1;" d="M 206.183594 181.230469 L 206.1875 181.230469 L 204.960938 179.109375 L 199.496094 169.605469 L 199.472656 169.605469 L 175.027344 127.289062 L 175.023438 127.296875 L 163.132812 106.742188 L 126.835938 106.742188 L 108.652344 138.171875 L 120.890625 159.328125 L 120.886719 159.328125 L 150.839844 211.210938 L 163.132812 232.53125 L 199.496094 232.53125 L 217.609375 201.101562 L 206.183594 181.230469 "/></g><g clip-rule="nonzero" clip-path="url(#883e5eea50)"><path style=" stroke:none;fill-rule:nonzero;fill:#47a1ff;fill-opacity:1;" d="M 277.921875 179.703125 L 277.96875 179.675781 L 246.878906 125.734375 L 246.808594 125.78125 L 235.792969 106.742188 L 199.496094 106.742188 L 181.3125 138.171875 L 199.496094 169.605469 L 199.507812 169.605469 L 217.664062 201.007812 L 217.609375 201.101562 L 235.792969 232.53125 L 272.089844 232.53125 L 290.273438 201.101562 L 277.921875 179.703125 "/></g><g clip-rule="nonzero" clip-path="url(#97618e4d5f)"><path style=" stroke:none;fill-rule:evenodd;fill:#000000;fill-opacity:1;" d="M 246.976562 202.816406 C 275.808594 202.816406 302.882812 199.417969 326.410156 193.441406 C 310.21875 195.902344 292.90625 197.222656 274.90625 197.222656 C 184.6875 197.222656 111.550781 163.921875 111.550781 122.832031 C 111.550781 94.882812 145.40625 70.539062 195.472656 57.8125 C 130.488281 67.640625 83.621094 95.539062 83.621094 128.441406 C 83.621094 169.511719 156.757812 202.816406 246.976562 202.816406 Z M 243.945312 45.472656 L 243.945312 44.871094 C 207.929688 44.871094 205.316406 39.027344 205.316406 6.226562 L 204.714844 6.226562 C 204.714844 39.027344 202.085938 44.871094 166.070312 44.871094 L 166.070312 45.472656 C 202.085938 45.472656 204.714844 51.300781 204.714844 84.101562 L 205.316406 84.101562 C 205.316406 51.300781 207.929688 45.472656 243.945312 45.472656 "/></g><g style="fill:#000000;fill-opacity:1;"><g transform="translate(19.971004, 315.689937)"><path style="stroke:none" d="M 33.953125 -31.9375 C 33.953125 -28.800781 32.648438 -27.234375 30.046875 -27.234375 L 11.625 -27.234375 L 11.625 -17.546875 L 36.375 -17.546875 C 36.375 -14.453125 35.070312 -12.90625 32.46875 -12.90625 L 5.640625 -12.90625 C 2.910156 -12.90625 1.546875 -14.25 1.546875 -16.9375 L 1.546875 -41.140625 C 1.546875 -43.828125 2.890625 -45.171875 5.578125 -45.171875 L 36.375 -45.171875 C 36.375 -42.035156 35.070312 -40.46875 32.46875 -40.46875 L 11.625 -40.46875 L 11.625 -31.9375 Z M 33.953125 -31.9375 "/></g><g transform="translate(57.888305, 315.689937)"><path style="stroke:none" d="M 14.3125 -42.484375 L 28.96875 -25.609375 L 28.96875 -45.171875 L 39.0625 -45.171875 L 39.0625 -17.140625 C 39.0625 -14.316406 37.5625 -12.90625 34.5625 -12.90625 L 33.078125 -12.90625 C 30.335938 -12.90625 27.757812 -14.09375 25.34375 -16.46875 L 11.625 -32.46875 L 11.625 -12.90625 L 1.546875 -12.90625 L 1.546875 -40.875 C 1.546875 -43.738281 2.753906 -45.171875 5.171875 -45.171875 L 9.546875 -45.171875 C 10.890625 -45.171875 12.476562 -44.273438 14.3125 -42.484375 Z M 14.3125 -42.484375 "/></g><g transform="translate(98.629236, 315.689937)"><path style="stroke:none" d="M 34.078125 -43.5 C 37.671875 -41.394531 39.441406 -38.191406 39.390625 -33.890625 L 29.3125 -33.890625 C 29.21875 -38.003906 26.347656 -40.0625 20.703125 -40.0625 C 15.285156 -40.0625 12.550781 -38.492188 12.5 -35.359375 C 12.550781 -32.941406 15.285156 -31.734375 20.703125 -31.734375 C 28.273438 -31.816406 33.363281 -31.164062 35.96875 -29.78125 C 38.789062 -28.394531 40.203125 -26.132812 40.203125 -23 C 40.203125 -18.6875 38.429688 -15.660156 34.890625 -13.921875 C 32.378906 -12.660156 27.582031 -12.03125 20.5 -12.03125 C 13.425781 -12.03125 8.898438 -12.660156 6.921875 -13.921875 C 3.472656 -15.890625 1.75 -19.335938 1.75 -24.265625 L 11.703125 -24.265625 C 11.703125 -19.648438 14.4375 -17.34375 19.90625 -17.34375 C 26.582031 -17.34375 29.988281 -19.203125 30.125 -22.921875 C 29.988281 -25.160156 26.582031 -26.304688 19.90625 -26.359375 C 14.207031 -26.304688 10.0625 -26.863281 7.46875 -28.03125 C 4.195312 -29.289062 2.5625 -31.757812 2.5625 -35.4375 C 2.5625 -39.0625 4.285156 -41.75 7.734375 -43.5 C 10.242188 -44.75 14.632812 -45.375 20.90625 -45.375 C 27.1875 -45.375 31.578125 -44.75 34.078125 -43.5 Z M 34.078125 -43.5 "/></g><g transform="translate(140.445835, 315.689937)"><path style="stroke:none" d="M 33.953125 -31.9375 C 33.953125 -28.800781 32.648438 -27.234375 30.046875 -27.234375 L 11.625 -27.234375 L 11.625 -17.546875 L 36.375 -17.546875 C 36.375 -14.453125 35.070312 -12.90625 32.46875 -12.90625 L 5.640625 -12.90625 C 2.910156 -12.90625 1.546875 -14.25 1.546875 -16.9375 L 1.546875 -41.140625 C 1.546875 -43.828125 2.890625 -45.171875 5.578125 -45.171875 L 36.375 -45.171875 C 36.375 -42.035156 35.070312 -40.46875 32.46875 -40.46875 L 11.625 -40.46875 L 11.625 -31.9375 Z M 33.953125 -31.9375 "/></g><g transform="translate(178.363137, 315.689937)"><path style="stroke:none" d="M 11.625 -45.171875 L 11.625 -12.90625 L 1.546875 -12.90625 L 1.546875 -45.171875 Z M 11.625 -45.171875 "/></g><g transform="translate(191.741759, 315.689937)"><path style="stroke:none" d="M 33.8125 -43.5 C 38.300781 -41.394531 40.609375 -37.921875 40.734375 -33.078125 L 30.65625 -33.078125 C 30.5625 -37.734375 27.515625 -40.0625 21.515625 -40.0625 C 14.972656 -40.0625 11.703125 -36.234375 11.703125 -28.578125 C 11.703125 -20.640625 15.0625 -16.671875 21.78125 -16.671875 C 27.03125 -16.671875 30.007812 -19.648438 30.71875 -25.609375 L 20.375 -25.609375 L 20.375 -30.328125 L 36.296875 -30.328125 C 39.441406 -30.328125 41.035156 -29.023438 41.078125 -26.421875 C 41.035156 -20.773438 39.722656 -16.960938 37.140625 -14.984375 C 34.566406 -13.015625 29.300781 -12.03125 21.34375 -12.03125 C 13.382812 -12.03125 8.441406 -12.789062 6.515625 -14.3125 C 3.335938 -16.738281 1.75 -21.425781 1.75 -28.375 C 1.75 -36.300781 4.007812 -41.34375 8.53125 -43.5 C 11.582031 -44.75 15.796875 -45.375 21.171875 -45.375 C 26.554688 -45.375 30.769531 -44.75 33.8125 -43.5 Z M 33.8125 -43.5 "/></g><g transform="translate(234.499568, 315.689937)"><path style="stroke:none" d="M 14.3125 -42.484375 L 28.96875 -25.609375 L 28.96875 -45.171875 L 39.0625 -45.171875 L 39.0625 -17.140625 C 39.0625 -14.316406 37.5625 -12.90625 34.5625 -12.90625 L 33.078125 -12.90625 C 30.335938 -12.90625 27.757812 -14.09375 25.34375 -16.46875 L 11.625 -32.46875 L 11.625 -12.90625 L 1.546875 -12.90625 L 1.546875 -40.875 C 1.546875 -43.738281 2.753906 -45.171875 5.171875 -45.171875 L 9.546875 -45.171875 C 10.890625 -45.171875 12.476562 -44.273438 14.3125 -42.484375 Z M 14.3125 -42.484375 "/></g><g transform="translate(275.240499, 315.689937)"><path style="stroke:none" d="M 33.953125 -31.9375 C 33.953125 -28.800781 32.648438 -27.234375 30.046875 -27.234375 L 11.625 -27.234375 L 11.625 -17.546875 L 36.375 -17.546875 C 36.375 -14.453125 35.070312 -12.90625 32.46875 -12.90625 L 5.640625 -12.90625 C 2.910156 -12.90625 1.546875 -14.25 1.546875 -16.9375 L 1.546875 -41.140625 C 1.546875 -43.828125 2.890625 -45.171875 5.578125 -45.171875 L 36.375 -45.171875 C 36.375 -42.035156 35.070312 -40.46875 32.46875 -40.46875 L 11.625 -40.46875 L 11.625 -31.9375 Z M 33.953125 -31.9375 "/></g><g transform="translate(313.1578, 315.689937)"><path style="stroke:none" d="M 34.078125 -43.5 C 37.671875 -41.394531 39.441406 -38.191406 39.390625 -33.890625 L 29.3125 -33.890625 C 29.21875 -38.003906 26.347656 -40.0625 20.703125 -40.0625 C 15.285156 -40.0625 12.550781 -38.492188 12.5 -35.359375 C 12.550781 -32.941406 15.285156 -31.734375 20.703125 -31.734375 C 28.273438 -31.816406 33.363281 -31.164062 35.96875 -29.78125 C 38.789062 -28.394531 40.203125 -26.132812 40.203125 -23 C 40.203125 -18.6875 38.429688 -15.660156 34.890625 -13.921875 C 32.378906 -12.660156 27.582031 -12.03125 20.5 -12.03125 C 13.425781 -12.03125 8.898438 -12.660156 6.921875 -13.921875 C 3.472656 -15.890625 1.75 -19.335938 1.75 -24.265625 L 11.703125 -24.265625 C 11.703125 -19.648438 14.4375 -17.34375 19.90625 -17.34375 C 26.582031 -17.34375 29.988281 -19.203125 30.125 -22.921875 C 29.988281 -25.160156 26.582031 -26.304688 19.90625 -26.359375 C 14.207031 -26.304688 10.0625 -26.863281 7.46875 -28.03125 C 4.195312 -29.289062 2.5625 -31.757812 2.5625 -35.4375 C 2.5625 -39.0625 4.285156 -41.75 7.734375 -43.5 C 10.242188 -44.75 14.632812 -45.375 20.90625 -45.375 C 27.1875 -45.375 31.578125 -44.75 34.078125 -43.5 Z M 34.078125 -43.5 "/></g></g><g style="fill:#000000;fill-opacity:1;"><g transform="translate(27.777193, 353.460271)"><path style="stroke:none" d="M 20.640625 0 L 20.640625 -28.46875 L 19.125 -29.984375 L 11.1875 -29.984375 L 9.6875 -28.46875 L 9.6875 0 L 5.0625 0 L 5.0625 -30.5625 L 8.5625 -34.078125 L 20.484375 -34.078125 L 22.96875 -31.59375 L 25.453125 -34.078125 L 37.328125 -34.078125 L 40.890625 -30.5625 L 40.890625 0 L 36.265625 0 L 36.265625 -28.46875 L 34.75 -29.984375 L 26.8125 -29.984375 L 25.265625 -28.46875 L 25.265625 0 Z M 20.640625 0 "/></g></g><g style="fill:#000000;fill-opacity:1;"><g transform="translate(73.716193, 353.460271)"><path style="stroke:none" d="M 5.0625 0 L 5.0625 -34.078125 L 29.59375 -34.078125 L 29.59375 -29.984375 L 9.6875 -29.984375 L 9.6875 -19.078125 L 24.71875 -19.078125 L 24.71875 -14.984375 L 9.6875 -14.984375 L 9.6875 -4.09375 L 29.59375 -4.09375 L 29.59375 0 Z M 5.0625 0 "/></g></g><g style="fill:#000000;fill-opacity:1;"><g transform="translate(106.126542, 353.460271)"><path style="stroke:none" d="M 5.0625 0 L 5.0625 -34.078125 L 26.421875 -34.078125 L 32.359375 -28.125 L 32.359375 -5.984375 L 26.421875 0 Z M 9.6875 -4.09375 L 24.140625 -4.09375 L 27.75 -7.6875 L 27.75 -26.421875 L 24.140625 -29.984375 L 9.6875 -29.984375 Z M 9.6875 -4.09375 "/></g></g><g style="fill:#000000;fill-opacity:1;"><g transform="translate(142.576018, 353.460271)"><path style="stroke:none" d="M 5.0625 0 L 5.0625 -34.078125 L 9.6875 -34.078125 L 9.6875 0 Z M 5.0625 0 "/></g></g><g style="fill:#000000;fill-opacity:1;"><g transform="translate(157.321273, 353.460271)"><path style="stroke:none" d="M 5.0625 0 L 5.0625 -30.5625 L 8.5625 -34.078125 L 28.46875 -34.078125 L 32.03125 -30.5625 L 32.03125 0 L 27.40625 0 L 27.40625 -11.484375 L 9.6875 -11.484375 L 9.6875 0 Z M 9.6875 -15.578125 L 27.40625 -15.578125 L 27.40625 -28.46875 L 25.84375 -29.984375 L 11.1875 -29.984375 L 9.6875 -28.46875 Z M 9.6875 -15.578125 "/></g></g><g style="fill:#000000;fill-opacity:1;"><g transform="translate(194.354717, 353.460271)"><path style="stroke:none" d="M 5.0625 0 L 5.0625 -34.078125 L 28.46875 -34.078125 L 32.03125 -30.5625 L 32.03125 -16.015625 L 28.46875 -12.453125 L 9.6875 -12.453125 L 9.6875 0 Z M 9.6875 -16.546875 L 25.84375 -16.546875 L 27.40625 -18.0625 L 27.40625 -28.46875 L 25.84375 -29.984375 L 9.6875 -29.984375 Z M 9.6875 -16.546875 "/></g></g><g style="fill:#000000;fill-opacity:1;"><g transform="translate(229.928241, 353.460271)"><path style="stroke:none" d="M 5.0625 0 L 5.0625 -34.078125 L 28.46875 -34.078125 L 32.03125 -30.5625 L 32.03125 -17.90625 L 28.671875 -14.546875 L 32.03125 -11.140625 L 32.03125 0 L 27.40625 0 L 27.40625 -10.359375 L 25.265625 -12.453125 L 9.6875 -12.453125 L 9.6875 0 Z M 9.6875 -16.546875 L 25.265625 -16.546875 L 27.40625 -18.6875 L 27.40625 -28.46875 L 25.84375 -29.984375 L 9.6875 -29.984375 Z M 9.6875 -16.546875 "/></g></g><g style="fill:#000000;fill-opacity:1;"><g transform="translate(266.6697, 353.460271)"><path style="stroke:none" d="M 5.0625 0 L 5.0625 -34.078125 L 9.6875 -34.078125 L 9.6875 0 Z M 5.0625 0 "/></g></g><g style="fill:#000000;fill-opacity:1;"><g transform="translate(281.414956, 353.460271)"><path style="stroke:none" d="M 5.0625 0 L 5.0625 -30.5625 L 8.5625 -34.078125 L 28.46875 -34.078125 L 32.03125 -30.5625 L 32.03125 0 L 27.40625 0 L 27.40625 -28.46875 L 25.84375 -29.984375 L 11.1875 -29.984375 L 9.6875 -28.46875 L 9.6875 0 Z M 5.0625 0 "/></g></g><g style="fill:#000000;fill-opacity:1;"><g transform="translate(318.448399, 353.460271)"><path style="stroke:none" d="M 12.078125 0 L 12.078125 -29.984375 L 1.265625 -29.984375 L 1.265625 -34.078125 L 27.453125 -34.078125 L 27.453125 -29.984375 L 16.6875 -29.984375 L 16.6875 0 Z M 12.078125 0 "/></g></g></g></svg>